<?xml version="1.0" encoding="utf-8"?>
<!-- Generator: Adobe Illustrator 26.5.3, SVG Export Plug-In . SVG Version: 6.00 Build 0)  -->
<svg version="1.1" id="Layer_1" xmlns="http://www.w3.org/2000/svg" xmlns:xlink="http://www.w3.org/1999/xlink" x="0px" y="0px"
	 viewBox="0 0 512 512" style="enable-background:new 0 0 512 512;" xml:space="preserve">
<style type="text/css">
	.st0{fill:none;stroke:#B5DCFF;stroke-width:34;stroke-linecap:round;stroke-linejoin:round;stroke-miterlimit:10;}
	.st1{display:none;}
	.st2{display:inline;}
</style>
<g id="Layer_2_00000000200849881981950450000016172565435956401839_">
	<polygon class="st0" points="337.8,104.7 337.8,179 415.8,257.1 254.2,418.7 91.7,257.1 170.6,179 170.6,104.7 235,167.9 
		276.5,167.9 	"/>
	<line class="st0" x1="215.4" y1="234.2" x2="215.4" y2="271.4"/>
	<line class="st0" x1="296.6" y1="234.2" x2="296.6" y2="271.4"/>
</g>
<g id="ort" class="st1">
	<path class="st2" d="M303.9,343.6c16.8-17.1,45.1-45.7,62.8-63.7c17.7-18,32.2-32.7,32.3-32.8c0.1-0.1-2.4-2.8-5.4-5.9
		c-7.8-8.1-35.2-36.5-44.6-46.3c-23.7-24.5-22.7-23.4-23.9-25.8c-1.3-2.6-1.2-1.1-1.5-22.8l-0.2-14.2l-21.8,18.7
		c-12,10.3-22.5,19.1-23.2,19.5c-3.2,1.9-3,1.8-25,1.8c-11.5,0-20.7-0.2-21.6-0.3c-2.5-0.5-4.9-1.9-8-4.6
		c-2.8-2.4-24-21.2-34.3-30.5l-5.1-4.6l-0.2,16c-0.1,8.8-0.4,16.9-0.5,18c-0.4,3-1.9,5.4-5.4,9.3c-4.7,5.1-19.1,19.9-45.7,46.9
		c-13.3,13.6-24.3,24.8-24.3,24.9c0,0.1,31.6,32.1,70.1,71s71.3,72,72.6,73.5l2.6,2.7l9.9-10C268.9,379.1,287.1,360.7,303.9,343.6z
		 M250.6,425.8c-2.8-0.7-4.8-2.1-8.6-6c-2-2.1-10-10.1-17.7-17.9s-27.3-27.6-43.6-44s-35.8-36.2-43.4-43.9s-20.3-20.5-28.2-28.5
		c-31.3-31.6-29.6-29.8-30.8-32.1c-2-3.9-2.1-7.7-0.3-11.6c0.9-1.9,2.2-3.3,20.8-22.1c9.7-9.9,17.2-17.4,35.4-36
		c3.6-3.6,10.3-10.6,15.1-15.4l8.5-8.8l0.2-3.3c0.1-1.8,0.3-14.7,0.5-28.6c0.2-15.1,0.5-25.9,0.7-26.8c0.8-3.7,4.2-7.8,7.6-9.2
		c1.4-0.6,2.3-0.7,5.1-0.7c5.2,0,5.4,0.1,19.8,13.1c15,13.5,27.4,24.6,38.5,34.4l8.6,7.7l7.1,0.2c3.9,0.1,10.2,0.2,14,0.2l7,0
		l27.4-23.4c36.3-31.1,34.7-29.7,35.6-30.3c1.4-0.9,4.5-1.7,6.8-1.7c6.2,0,11.6,4.4,12.7,10.5c0.2,1,0.3,11.9,0.3,29.2v27.6l3.4,3.5
		c16.7,17.1,71.4,74.1,73.6,76.6c2.4,2.8,3.4,5.1,3.5,8.4c0.1,3.3-0.4,5.3-2,7.7c-0.6,0.9-9.3,9.9-19.3,19.9
		c-10,10-27.9,28.1-39.8,40.2s-26.5,26.9-32.4,32.8c-5.8,5.9-15.4,15.6-21.1,21.4c-11.5,11.7-25.7,26.1-43,43.6
		c-10.6,10.7-11.3,11.4-13.4,12.4c-1.9,0.9-2.6,1.1-4.8,1.2C253.1,426,251.8,425.9,250.6,425.8z"/>
	<path class="st2" d="M206.6,268.7c-4-1.3-7.1-4.4-8.4-8.4c-0.6-1.9-0.6-2.7-0.5-26.6l0.1-24.6l1-2c1.2-2.7,3.4-4.9,6.1-6.2
		c2.2-1.1,2.3-1.1,5.7-1.1c3.3,0,3.6,0.1,5.5,1c2.7,1.4,4.9,3.6,6.3,6.3l1,2l0.1,24.4c0.1,22.1,0,24.6-0.4,26.3
		c-1.4,5.5-6.6,9.4-12.5,9.3C209.1,269.3,207.9,269.1,206.6,268.7z"/>
	<path class="st2" d="M292.2,268.7c-2.8-0.9-5.1-2.7-6.8-5.1c-2.2-3.3-2.1-2.5-2.1-29.9l0.1-24.4l1-2c1.4-2.7,3.6-4.9,6.3-6.3
		c1.9-0.9,2.2-1,5.5-1c3.4,0,3.5,0,5.7,1.1c2.7,1.3,4.8,3.5,6.1,6.2l1,2l0.1,24.6c0.1,23.9,0.1,24.6-0.5,26.6
		C306.5,267,298.8,271,292.2,268.7z"/>
</g>
</svg>
